<?xml version="1.0" encoding="utf-8"?>
<!-- Generator: Adobe Illustrator 15.0.0, SVG Export Plug-In . SVG Version: 6.00 Build 0)  -->
<!DOCTYPE svg PUBLIC "-//W3C//DTD SVG 1.1//EN" "http://www.w3.org/Graphics/SVG/1.1/DTD/svg11.dtd">
<svg version="1.1" id="レイヤー_1" xmlns="http://www.w3.org/2000/svg" xmlns:xlink="http://www.w3.org/1999/xlink" x="0px"
	 y="0px" width="16px" height="16px" viewBox="0 0 16 16" enable-background="new 0 0 16 16" xml:space="preserve">
<path fill="#C38EF1" d="M14,1v2h-2V1H4v2H2V1H1v14h1v-2h2v2h8v-2h2v2h1V1H14z M4,11H2V9h2V11z M4,7H2V5h2V7z M11.293,7.464
	c-0.375,0.566-1.141,0.72-1.706,0.345L7.809,9.587c0.104,0.153,0.169,0.329,0.194,0.511c0.094,0.674-0.377,1.296-1.051,1.391
	c-0.673,0.094-1.295-0.378-1.39-1.051c-0.184-0.025-0.359-0.092-0.513-0.194C4.484,9.867,4.329,9.103,4.707,8.537
	c0.376-0.568,1.141-0.721,1.708-0.345l1.778-1.778C8.09,6.261,8.022,6.085,7.997,5.902c-0.093-0.674,0.378-1.297,1.052-1.39
	c0.674-0.094,1.295,0.376,1.391,1.05c0.182,0.025,0.357,0.092,0.511,0.195C11.517,6.133,11.67,6.898,11.293,7.464z M14,11h-2V9h2V11
	z M14,7h-2V5h2V7z"/>
</svg>
